<svg xmlns="http://www.w3.org/2000/svg"  viewBox="0 0 50 50" width="50px" height="50px"><path d="M 22 1 L 22 9 L 20 9 L 20 11 L 23.265625 11 L 11.070312 32.001953 A 1.0001 1.0001 0 0 0 11 32 C 11 32 7.4906773 31.93328 5.8320312 29.445312 A 1.0001 1.0001 0 0 0 4.9882812 28.988281 A 1.0001 1.0001 0 0 0 4.1679688 30.554688 C 5.8148272 33.024975 8.4980182 33.712392 9.9609375 33.910156 L 5.2636719 42 L 17.820312 42 L 17.191406 45.767578 L 14.242188 45.029297 A 1.0004596 1.0004596 0 1 0 13.757812 46.970703 L 17.757812 47.970703 A 1.0001 1.0001 0 0 0 18.986328 47.164062 L 19.847656 42 L 31.152344 42 L 32.013672 47.164062 A 1.0001 1.0001 0 0 0 33.316406 47.949219 L 36.316406 46.949219 A 1.0005646 1.0005646 0 1 0 35.683594 45.050781 L 33.792969 45.681641 L 33.179688 42 L 44.736328 42 L 40.039062 33.910156 C 41.501982 33.712392 44.185173 33.024975 45.832031 30.554688 A 1.0001 1.0001 0 0 0 44.980469 28.988281 A 1.0001 1.0001 0 0 0 44.167969 29.445312 C 42.509323 31.933282 39 32 39 32 A 1.0001 1.0001 0 0 0 38.931641 32.001953 L 26.734375 11 L 30 11 L 30 9 L 28 9 L 28 1 L 22 1 z M 24 3 L 26 3 L 26 9 L 24 9 L 24 3 z M 25 11.992188 L 29.076172 19.013672 C 27.985772 18.42057 26.645032 18 25 18 C 23.355581 18 22.01598 18.415717 20.927734 19.003906 L 25 11.992188 z M 25 20 C 29.201091 20 30.567224 22.905239 30.826172 23.503906 C 30.571931 24.104594 29.234449 27 25 27 C 20.761174 27 19.423719 24.095998 19.171875 23.5 C 19.423719 22.904002 20.761174 20 25 20 z M 25 20 C 25 20 24 21.75 24 23.5 C 24 25.25 25 27 25 27 C 25 27 26 25.25 26 23.5 C 26 21.75 25 20 25 20 z M 17.570312 24.787109 C 18.4835 26.263019 20.741233 29 25 29 C 29.258767 29 31.5165 26.263019 32.429688 24.787109 L 36.617188 32 L 13.382812 32 L 17.570312 24.787109 z M 12.222656 34 L 19 34 L 19 36 L 11.060547 36 L 12.222656 34 z M 21 34 L 29 34 L 29 36 L 21 36 L 21 34 z M 31 34 L 37.777344 34 L 38.939453 36 L 31 36 L 31 34 z M 40 37.826172 L 41.261719 40 L 37 40 L 37 38 L 40 38 L 40 37.826172 z M 9.9003906 38 L 13 38 L 13 40 L 8.7382812 40 L 9.9003906 38 z M 15 38 L 24 38 L 24 40 L 19.171875 40 A 1.0001 1.0001 0 0 0 18.953125 39.986328 A 1.0001 1.0001 0 0 0 18.833984 40 L 15 40 L 15 38 z M 26 38 L 35 38 L 35 40 L 32.154297 40 A 1.0001 1.0001 0 0 0 32.017578 39.986328 A 1.0001 1.0001 0 0 0 31.835938 40 L 26 40 L 26 38 z"/></svg>